<?xml version="1.0" standalone="no"?>
<!DOCTYPE svg PUBLIC "-//W3C//DTD SVG 20010904//EN"
 "http://www.w3.org/TR/2001/REC-SVG-20010904/DTD/svg10.dtd">
<svg version="1.0" xmlns="http://www.w3.org/2000/svg"
 width="416.000000pt" height="416.000000pt" viewBox="0 0 416.000000 416.000000"
 preserveAspectRatio="xMidYMid meet">

<g transform="translate(0.000000,416.000000) scale(0.100000,-0.100000)"
fill="#000000" stroke="none">
<path d="M3325 3419 c-171 -87 -393 -236 -527 -352 l-57 -49 -42 33 c-28 22
-45 30 -54 23 -7 -5 -68 -51 -135 -103 -97 -74 -149 -106 -254 -153 -72 -32
-142 -69 -156 -81 -56 -51 -59 -52 -83 -30 -21 20 -43 21 -484 33 l-462 13
-57 -49 c-66 -56 -63 -48 17 51 126 156 90 169 -74 27 -132 -114 -314 -328
-295 -347 2 -3 18 0 34 7 25 9 37 7 79 -15 75 -37 709 -388 717 -396 4 -4 -27
-41 -70 -84 l-77 -77 -184 -62 -185 -63 -28 -84 c-15 -46 -26 -87 -23 -91 2
-4 45 -13 95 -19 50 -7 101 -16 115 -19 l25 -7 -30 -45 c-16 -25 -30 -50 -30
-56 0 -6 16 -18 34 -27 35 -16 35 -16 20 -47 -29 -56 6 -79 67 -43 37 22 76 9
101 -34 18 -30 18 -32 -3 -72 -26 -51 -20 -75 19 -69 15 3 35 8 44 12 13 6 21
-1 35 -28 l19 -36 48 30 c27 17 52 28 56 23 4 -4 14 -54 23 -111 8 -57 18
-106 21 -109 2 -3 44 8 92 23 l87 29 61 187 62 187 71 72 c83 85 82 85 142
-25 21 -39 114 -208 206 -375 155 -280 166 -305 154 -327 -7 -13 -9 -27 -6
-31 36 -35 468 394 441 438 -7 12 -51 -12 -114 -63 -29 -24 -65 -52 -79 -63
-26 -19 -26 -19 -12 0 8 11 28 35 45 52 l30 33 -11 466 c-12 457 -12 467 -34
490 l-21 23 41 49 c24 28 62 96 91 163 52 119 70 147 182 291 75 96 82 122 43
158 -33 31 -32 40 11 81 125 118 432 612 434 697 0 27 -63 9 -175 -49z m-525
-642 c0 4 9 -5 20 -22 11 -16 20 -34 20 -40 0 -5 -4 -4 -9 4 -5 7 -13 11 -18
8 -5 -3 -35 4 -66 17 l-56 23 21 20 20 21 34 -20 c19 -11 34 -16 34 -11z m-94
-42 c10 -26 -7 -40 -23 -19 -14 18 -14 18 -11 -6 2 -14 16 -33 35 -46 l32 -21
-21 -20 -20 -20 -39 41 c-36 39 -38 42 -21 56 10 8 21 23 25 33 8 21 35 23 43
2z m128 -60 c3 -9 -1 -18 -10 -22 -19 -7 -39 11 -30 26 10 16 33 13 40 -4z
m-259 -15 c5 -8 12 -7 23 2 15 11 15 11 4 -3 -11 -14 -7 -21 25 -49 34 -30 37
-31 44 -14 4 11 8 13 8 6 1 -22 -19 -52 -35 -52 -8 0 -37 19 -64 42 -40 34
-47 45 -39 60 11 20 25 23 34 8z m-20 -80 c3 -5 -3 -10 -15 -10 -12 0 -18 5
-15 10 3 6 10 10 15 10 5 0 12 -4 15 -10z m43 -32 c7 -7 12 -20 12 -29 0 -22
-49 -61 -64 -51 -7 4 -3 8 11 10 23 3 50 29 40 38 -3 3 -21 0 -41 -7 -28 -10
-38 -10 -50 0 -20 17 -21 42 -2 35 8 -3 23 -1 33 5 24 14 46 14 61 -1z m-89
-72 c40 -33 40 -34 20 -52 -19 -17 -21 -16 -59 21 -30 30 -37 42 -29 52 16 19
22 17 68 -21z m-51 -48 c45 -36 48 -51 13 -56 -32 -5 -95 56 -80 75 16 19 22
17 67 -19z m-74 -37 c53 -53 64 -81 34 -81 -6 0 -40 25 -75 56 -51 45 -61 59
-52 70 19 23 32 17 93 -45z m-23 -80 c15 -11 29 -17 33 -14 3 3 6 2 6 -4 0
-23 -30 -36 -55 -25 -38 18 -59 56 -44 83 l12 22 11 -20 c6 -12 23 -31 37 -42z
m-50 -43 c37 -30 38 -32 22 -50 -16 -18 -18 -17 -53 17 -20 19 -39 32 -43 29
-4 -4 -7 -3 -7 2 0 12 21 34 33 34 4 0 26 -14 48 -32z m-216 -24 c0 -10 -8
-20 -17 -22 -18 -3 -26 27 -11 42 12 11 28 0 28 -20z m164 -25 c39 -39 41 -43
26 -59 -16 -17 -18 -16 -57 26 -34 37 -38 46 -28 59 7 8 13 15 15 15 1 0 21
-19 44 -41z m-15 -89 c5 0 -1 -11 -13 -24 l-22 -24 -51 54 c-28 30 -58 54 -66
54 -12 0 -11 5 6 23 l22 23 57 -53 c32 -29 62 -53 67 -53z m-164 -24 c0 -2 -8
-10 -17 -17 -16 -13 -17 -12 -4 4 13 16 21 21 21 13z m-14 -59 c8 13 15 13 52
3 45 -14 50 -21 29 -39 -9 -7 -24 -8 -47 -1 l-33 9 21 -22 c20 -21 20 -24 6
-39 -15 -15 -22 -11 -82 47 -57 54 -64 65 -53 79 12 14 18 12 55 -19 36 -29
43 -32 52 -18z m-76 -67 c6 -11 8 -20 6 -20 -3 0 -10 9 -16 20 -6 11 -8 20 -6
20 3 0 10 -9 16 -20z m8 -36 c6 3 17 -5 26 -18 13 -21 13 -26 1 -36 -10 -9
-21 -7 -45 5 l-31 16 16 -31 c27 -52 14 -63 -42 -39 -66 28 -71 35 -45 61 12
12 22 17 22 10 0 -6 14 -19 31 -27 l30 -16 -12 23 c-6 13 -18 27 -26 31 -12 8
-12 12 2 27 16 17 19 18 41 4 13 -9 27 -13 32 -10z m-128 -129 c13 -14 30 -23
37 -21 16 7 17 -16 1 -32 -19 -19 -31 -15 -72 24 -30 28 -35 38 -25 45 22 14
34 11 59 -16z m-66 -21 c20 -8 21 -30 2 -37 -18 -7 -26 1 -26 25 0 20 1 21 24
12z m10 -105 c4 -4 2 -17 -6 -28 -15 -20 -15 -20 -43 9 -27 28 -30 29 -47 13
-18 -16 -17 -17 8 -44 15 -16 32 -25 38 -22 6 3 0 -6 -13 -20 -14 -15 -27 -23
-30 -19 -3 5 -31 31 -62 59 l-57 51 20 20 20 20 27 -30 c26 -29 27 -29 44 -10
18 19 17 21 -13 42 -30 21 -30 23 -14 41 17 18 19 18 68 -28 28 -25 55 -50 60
-54z m54 34 c-6 -7 -19 -13 -28 -13 -22 0 -30 19 -18 43 8 17 10 17 32 0 18
-13 21 -21 14 -30z"/>
</g>
</svg>
